<svg height="320pt" preserveAspectRatio="xMidYMid meet" viewBox="0 0 320 320" width="320pt" xmlns="http://www.w3.org/2000/svg"><g transform="matrix(.1 0 0 -.1 0 320)"><path d="m1445 2690c-359-56-665-276-829-595-25-49-46-98-46-107s-4-19-8-22c-5-3-14-31-21-63s-17-71-23-88c-16-52-22-284-9-376 37-250 143-453 335-636 156-150 331-243 535-285 80-17 123-19 261-15 142 4 178 8 255 31 192 58 353 155 491 297 143 147 228 293 282 486 25 90 27 113 27 278 0 141-4 194-18 247-62 232-142 375-301 534-151 151-303 236-515 291-108 27-312 39-416 23zm364-76c559-115 921-666 805-1225-51-251-190-466-398-621-282-210-641-261-975-139-371 135-637 483-670 873-15 191 16 374 94 536 77 162 176 284 311 385 244 184 540 251 833 191z"/><path d="m1258 2187-38-22 2-360c0-198 3-348 5-332 4 23 9 27 39 27 20 0 34-5 35-12 0-7 4-4 9 7s9 145 9 298c1 152 3 277 6 277s22-11 43-24c46-29 653-380 744-431 45-24 74-34 88-30 23 7 37 51 23 74-5 9-151 98-323 198-173 100-359 209-414 241-56 33-121 71-146 85l-45 25z"/><path d="m1058 2159c-17-9-18-45-17-542 1-293 3-524 6-514 4 15 18 17 121 17 106 0 114-1 96-15-35-28 78 32 316 168 245 140 272 163 246 202-30 45-56 34-376-154l-305-178-5 504c-4 433-7 505-20 513-19 12-40 12-62-1z"/><path d="m1396 1884c-22-22-20-47 7-71 12-11 160-96 329-189s308-172 308-175-154-99-342-212c-316-189-426-259-360-227 27 13 24 15 44-24 15-28 14-31-6-48-32-28 94 44 467 264l337 200v47 48l-363 201c-200 111-373 202-385 202-11 0-28-7-36-16z"/></g></svg>